<svg xmlns="http://www.w3.org/2000/svg" width="72.044" height="36.275"><defs><linearGradient id="c"><stop offset="0" stop-color="#ff2a2a"/><stop offset="1" stop-color="#a00"/></linearGradient><linearGradient id="e"><stop offset="0" stop-color="#f0f0f0"/><stop offset="1" stop-color="#c9c9c9"/></linearGradient><linearGradient id="f"><stop offset="0" stop-color="#8b8b8b"/><stop offset="1" stop-color="#a9a9a9"/></linearGradient><linearGradient id="g"><stop offset="0" stop-color="#b0b0b0"/><stop offset="1" stop-color="#757575"/></linearGradient><linearGradient id="a"><stop offset="0" stop-color="#fff"/><stop offset="1" stop-color="#fff" stop-opacity="0"/></linearGradient><linearGradient id="b"><stop offset="0" stop-color="#b0b0b0"/><stop offset="1" stop-color="#939393"/></linearGradient><linearGradient id="d"><stop offset="0" stop-color="#d6d6d6"/><stop offset="1" stop-color="#f0f0f0"/></linearGradient></defs><g font-weight="400" font-size="40" font-family="sans-serif"><path d="M7.267 30.263q-.231-.037-1.194-.167-.963-.15-1.946-.357-1.811-.396-3.836-1.215l-.019-3.476q1.043.632 1.969 1.071.926.42 1.928.743 1.909.627 3.66.656l-.047-8.843q-1.734-.3-3.18-.852-1.427-.572-2.433-1.474Q.216 14.602.2 11.687.184 8.675 2.214 6.849q2.011-1.807 4.915-2.093L7.105.22 10.57.2l.024 4.538q.02.038.81.15.808.092 1.521.223.79.15 1.58.34.79.188 1.6.435l.018 3.34q-.85-.44-1.737-.782-.887-.343-1.446-.494-.655-.19-1.483-.32-.81-.15-1.425-.186l.044 8.322q3.795.597 5.864 2.44 2.089 1.862 2.104 4.797.016 2.992-2.205 5.013-2.203 2-5.107 2.19l.031 5.85-3.464.019zM7.72 7.418q-1.79.087-2.919 1.174-1.13 1.087-1.12 2.883.01 1.68 1.073 2.64 1.102.978 3.01 1.277zm2.417 20.01q1.944-.068 3.111-1.194 1.187-1.146 1.177-3.019-.01-1.873-1.093-2.832-1.102-.98-3.24-1.335z" style="line-height:1.25" fill="#04a"/><path d="M21.106 1.026h3.73l15.352 32.87h-3.71z" style="line-height:1.25" fill="#4a0"/><path d="M46.758 30.752q-4.57 0-6.992-2.949-2.402-2.969-2.402-8.516 0-5.566 2.422-8.535 2.422-2.968 6.953-2.968 4.531 0 6.933 2.968 2.422 2.95 2.422 8.555 0 5.566-2.402 8.516-2.402 2.93-6.934 2.93zm-.02-3.047q2.677 0 4.102-2.187 1.446-2.188 1.446-6.27 0-4.062-1.446-6.23-1.425-2.188-4.101-2.188-2.695 0-4.14 2.188-1.426 2.168-1.426 6.23 0 4.082 1.445 6.27 1.445 2.187 4.12 2.187z" style="line-height:1.25" fill="#fc0"/><path d="M68.133 1.026h3.711l-15.351 32.87h-3.73z" style="line-height:1.25" fill="#d40055"/></g></svg>