<svg xmlns="http://www.w3.org/2000/svg" xmlns:xlink="http://www.w3.org/1999/xlink" width="194.965" height="64.975"><defs><linearGradient xlink:href="#b" id="k" x1="17.457" y1="37.662" x2="17.457" y2="27.232" gradientUnits="userSpaceOnUse" gradientTransform="matrix(2.00279 0 0 2.09891 70.543 -45.194)"/><linearGradient id="h"><stop offset="0" stop-color="#ff2a2a"/><stop offset="1" stop-color="#a00"/></linearGradient><linearGradient id="f"><stop offset="0" stop-color="#f0f0f0"/><stop offset="1" stop-color="#c9c9c9"/></linearGradient><linearGradient id="e"><stop offset="0" stop-color="#8b8b8b"/><stop offset="1" stop-color="#a9a9a9"/></linearGradient><linearGradient id="d"><stop offset="0" stop-color="#b0b0b0"/><stop offset="1" stop-color="#757575"/></linearGradient><linearGradient id="c"><stop offset="0"/><stop offset="1" stop-opacity="0"/></linearGradient><linearGradient id="b"><stop offset="0" stop-color="#fff"/><stop offset="1" stop-color="#fff" stop-opacity="0"/></linearGradient><linearGradient id="a"><stop offset="0" stop-color="#b0b0b0"/><stop offset="1" stop-color="#939393"/></linearGradient><linearGradient xlink:href="#a" id="j" x1="16.94" y1="27.853" x2="16.94" y2="24.135" gradientUnits="userSpaceOnUse" gradientTransform="matrix(2.00279 0 0 2.09891 70.543 -45.194)"/><linearGradient id="g"><stop offset="0" stop-color="#d6d6d6"/><stop offset="1" stop-color="#f0f0f0"/></linearGradient><linearGradient xlink:href="#h" id="q" x1="15.335" y1="28.378" x2="15.335" y2="34.388" gradientUnits="userSpaceOnUse" gradientTransform="matrix(4.41049 0 0 4.62218 149.23 -227.74)"/><linearGradient xlink:href="#g" id="o" gradientUnits="userSpaceOnUse" x1="14.883" y1="27.847" x2="13.401" y2="20.069" gradientTransform="matrix(2.00279 0 0 2.09891 70.543 -45.194)"/><linearGradient xlink:href="#g" id="i" x1="14.883" y1="27.847" x2="13.401" y2="20.069" gradientUnits="userSpaceOnUse" gradientTransform="matrix(2.00279 0 0 2.09891 70.543 -45.194)"/><radialGradient xlink:href="#f" id="m" cx="12.911" cy="13.002" fx="12.911" fy="13.002" r="7.489" gradientTransform="matrix(3.61047 0 0 3.15539 49.786 -57.083)" gradientUnits="userSpaceOnUse"/><radialGradient xlink:href="#e" id="s" gradientUnits="userSpaceOnUse" gradientTransform="matrix(2.42003 0 0 1.33594 63.409 -33.28)" cx="17.097" cy="19.777" fx="17.097" fy="19.777" r="4.547"/><radialGradient xlink:href="#f" id="r" gradientUnits="userSpaceOnUse" gradientTransform="matrix(3.61047 0 0 3.15539 49.786 -57.083)" cx="12.911" cy="13.002" fx="12.911" fy="13.002" r="7.489"/><radialGradient xlink:href="#e" id="n" cx="17.097" cy="19.777" fx="17.097" fy="19.777" r="4.547" gradientTransform="matrix(2.42003 0 0 1.33594 63.409 -33.28)" gradientUnits="userSpaceOnUse"/><radialGradient xlink:href="#d" id="l" cx="18.164" cy="22.532" fx="18.164" fy="22.532" r="2.842" gradientTransform="matrix(2.00279 0 0 1.8052 68.772 -40.962)" gradientUnits="userSpaceOnUse"/><radialGradient xlink:href="#h" id="p" cx="18.164" cy="22.224" fx="18.164" fy="22.224" r="2.842" gradientTransform="matrix(2.00279 0 0 1.8052 68.772 -40.962)" gradientUnits="userSpaceOnUse"/></defs><g transform="translate(-80.854 19.865)"><path style="marker:none" d="M101-13.46h7.416c8.585 0 19.12 2.766 19.12 3.896V37.93c0 1.13-.874 2.041-1.961 2.041H83.84c-1.086 0-1.961-.91-1.961-2.04V-9.565c0-1.13 10.357-3.896 19.12-3.896z" color="#000" overflow="visible" fill="url(#i)" fill-rule="evenodd" stroke="#949494" stroke-width="2.05"/><path d="M101.316-11.651h6.784c7.855 0 17.495 3.193 17.495 3.193v46.322H83.821V-8.458s9.477-3.193 17.495-3.193z" style="marker:none" color="#000" overflow="visible" opacity=".62" fill="none" stroke="#fff" stroke-width="2.05" stroke-linejoin="round"/><path style="marker:none" d="M105.416-2.328l-6.019 14.285v25.787l6.373 5.936 5.842-5.936V11.586z" color="#000" overflow="visible" fill="url(#j)" fill-rule="evenodd" stroke="#949494" stroke-width="2.05"/><path d="M105.44 3.973l-4.016 9.259v23.189l4.273 4.31 3.888-4.31V12.963z" style="marker:none" color="#000" overflow="visible" opacity=".468" fill="none" stroke="url(#k)" stroke-width="2.05"/><ellipse style="marker:none" cx="105.151" cy="1.011" rx="4.691" ry="4.081" color="#000" overflow="visible" fill="url(#l)" fill-rule="evenodd" stroke="#949494" stroke-width="2.05"/><path style="marker:none" d="M104.708-2.7l-10.09 7.978S90.9-6.406 90.9-11.604c0-5.195 2.656-7.236 5.488-7.236h16.817c1.916 0 5.267.835 5.665 6.865.398 6.029-4.072 17.253-4.072 17.253z" color="#000" overflow="visible" fill="url(#m)" fill-rule="evenodd" stroke="#949494" stroke-width="2.05"/><path style="marker:none" d="M98.415-13.83s-3.636 1.024-2.995 3.482c.642 2.458 5.562 6.35 5.562 6.35h9.198s4.224-3.278 4.706-5.736c.48-2.458-2.781-4.097-2.781-4.097z" color="#000" overflow="visible" fill="#fff" fill-rule="evenodd"/><path d="M98.061-15.871s-3.636 1.024-2.995 3.482c.642 2.458 5.562 6.35 5.562 6.35h9.198s4.224-3.277 4.706-5.735c.48-2.459-2.781-4.097-2.781-4.097z" style="marker:none" color="#000" overflow="visible" fill="url(#n)" fill-rule="evenodd"/><path d="M101-13.46h7.416c8.585 0 19.12 2.766 19.12 3.896V37.93c0 1.13-.874 2.041-1.961 2.041H83.84c-1.086 0-1.961-.91-1.961-2.04V-9.565c0-1.13 10.357-3.896 19.12-3.896z" style="marker:none" color="#000" overflow="visible" fill="url(#o)" fill-rule="evenodd" stroke="#949494" stroke-width="2.05"/><path style="marker:none" d="M101.316-11.651h6.784c7.855 0 17.495 3.193 17.495 3.193v46.322H83.821V-8.458s9.477-3.193 17.495-3.193z" color="#000" overflow="visible" opacity=".62" fill="none" stroke="#fff" stroke-width="2.05" stroke-linejoin="round"/><ellipse style="marker:none" cx="105.151" cy="1.011" rx="4.691" ry="4.081" color="#000" overflow="visible" fill="url(#p)" fill-rule="evenodd" stroke="#c70c0c" stroke-width="2.05"/><path style="marker:none" d="M216.671-119.451s-13.254 20.42-13.254 31.458v56.788l14.034 13.073 12.865-13.073V-88.81c0-9.245-13.645-30.641-13.645-30.641z" color="#000" overflow="visible" fill="url(#q)" fill-rule="evenodd" stroke="#c70c0c" stroke-width="4.515" transform="matrix(.4541 0 0 .4541 7.027 51.914)"/><path d="M104.708-2.7l-10.09 7.978S90.9-6.406 90.9-11.604c0-5.195 2.656-7.236 5.488-7.236h16.817c1.916 0 5.267.835 5.665 6.865.398 6.029-4.072 17.253-4.072 17.253z" style="marker:none" color="#000" overflow="visible" fill="url(#r)" fill-rule="evenodd" stroke="#949494" stroke-width="2.05"/><path d="M98.415-13.83s-3.636 1.024-2.995 3.482c.642 2.458 3.42 6.35 5.562 6.35h9.198c1.757 0 4.224-3.278 4.706-5.736.48-2.458-2.781-4.097-2.781-4.097z" style="marker:none" color="#000" overflow="visible" fill="#fff" fill-rule="evenodd"/><path d="M104-3.441l-8.851 7.05-3.01-13.915 4.072 11.317z" style="marker:none" color="#000" overflow="visible" opacity=".62" fill="#fff" fill-rule="evenodd"/><path style="marker:none" d="M98.061-15.871s-3.636 1.024-2.995 3.482c.642 2.458 3.309 6.35 5.562 6.35h9.198c1.502 0 4.224-3.277 4.706-5.735.48-2.459-2.781-4.097-2.781-4.097z" color="#000" overflow="visible" fill="url(#s)" fill-rule="evenodd"/><text style="line-height:1.25" x="149.328" y="20.077" font-weight="400" font-size="51.842" font-family="sans-serif" letter-spacing="0" word-spacing="0" stroke-width="1.296"><tspan x="149.328" y="20.077" style="-inkscape-font-specification:'Hoefler Text, Normal';font-variant-ligatures:normal;font-variant-caps:normal;font-variant-numeric:normal;font-feature-settings:normal;text-align:start" font-family="Hoefler Text">pyceo</tspan></text></g></svg>